<svg width="48" height="48" viewBox="0 0 48 48" fill="none" xmlns="http://www.w3.org/2000/svg">
<path fill-rule="evenodd" clip-rule="evenodd" d="M28.5005 8.5C28.5005 10.9853 26.4858 13 24.0005 13C21.5153 13 19.5005 10.9853 19.5005 8.5C19.5005 6.01472 21.5153 4 24.0005 4C26.4858 4 28.5005 6.01472 28.5005 8.5ZM18.5005 21C18.5005 23.5306 16.1647 32.0452 15.3095 35.0778C15.1465 35.6558 15.5249 36.2471 16.1188 36.3364C22.1059 37.2369 25.8995 37.2073 31.8861 36.3305C32.4787 36.2438 32.8606 35.6592 32.7026 35.0815C31.857 31.9898 29.503 23.1876 29.5005 21.0034V21V19.4948C29.8981 19.9955 30.2693 20.7401 30.4973 21.5452L30.5193 21.6225C30.6584 22.1136 30.7107 22.2982 30.7599 22.4837C30.7895 22.5955 30.818 22.7075 30.8637 22.887C30.9923 23.3925 31.257 24.4331 32.0664 27.509C32.3475 28.5772 33.4413 29.2153 34.5095 28.9341C35.5777 28.653 36.2158 27.5592 35.9347 26.491C35.1647 23.5651 34.8909 22.4916 34.7502 21.94V21.9399C34.6059 21.3744 34.6016 21.3576 34.3459 20.4548C34.0012 19.2383 33.4141 17.986 32.6216 16.993C31.8738 16.0559 30.6485 15 29.0005 15H24.0005H19.0005C17.3525 15 16.1273 16.0559 15.3794 16.993C14.5869 17.986 13.9998 19.2383 13.6552 20.4548C13.3994 21.3576 13.3951 21.3744 13.2509 21.9399C13.1102 22.4915 12.8364 23.5649 12.0664 26.491C11.7852 27.5592 12.4233 28.653 13.4915 28.9341C14.5597 29.2153 15.6535 28.5772 15.9347 27.509C16.7441 24.4331 17.0088 23.3925 17.1374 22.887C17.183 22.7075 17.2115 22.5954 17.2412 22.4837C17.2903 22.2983 17.3427 22.1136 17.4818 21.6226V21.6224L17.4819 21.6222L17.5037 21.5452C17.7318 20.7401 18.1029 19.9954 18.5005 19.4948V21ZM18.5005 42.3877V38.5704C19.91 38.7792 21.214 38.9111 22.488 38.9679L21.4477 42.7824C21.25 43.5074 20.5463 43.9742 19.8014 43.8745C19.0566 43.7747 18.5005 43.1392 18.5005 42.3877ZM26.5534 42.7824L25.5113 38.9616C26.7859 38.8998 28.0905 38.7642 29.5005 38.5566V42.3877C29.5005 43.1392 28.9445 43.7747 28.1996 43.8745C27.4548 43.9742 26.7511 43.5074 26.5534 42.7824Z" fill="#475467"/>
</svg>
